<svg xmlns="http://www.w3.org/2000/svg" width="233" height="46" viewBox="0 0 233 46">
  <g id="detect-language-button" transform="translate(-87 -57)">
    <rect id="Rectangle_80" data-name="Rectangle 80" width="233" height="46" rx="23" transform="translate(87 57)" fill="#f5f4ee"/>
    <path id="Path_123" data-name="Path 123" d="M-74.56,0V-11.36h4.032a5.754,5.754,0,0,1,3.072.76,4.792,4.792,0,0,1,1.848,2.048A6.534,6.534,0,0,1-64.992-5.7a6.322,6.322,0,0,1-.68,3.008A4.833,4.833,0,0,1-67.6-.7a5.861,5.861,0,0,1-2.928.7Zm7.744-5.7a4.858,4.858,0,0,0-.44-2.12,3.391,3.391,0,0,0-1.264-1.44,3.688,3.688,0,0,0-2.008-.52h-2.24v8.192h2.24A3.594,3.594,0,0,0-68.5-2.128,3.488,3.488,0,0,0-67.248-3.6,4.909,4.909,0,0,0-66.816-5.7Zm11.5,4.112V0H-63.1V-11.36h7.648v1.584h-5.856v3.232h5.072v1.488h-5.072v3.472ZM-45.12-9.776H-48.9V0H-50.7V-9.776H-54.5V-11.36h9.376Zm9.312,8.192V0H-43.6V-11.36h7.648v1.584h-5.856v3.232h5.072v1.488h-5.072v3.472Zm.928-4.176a5.864,5.864,0,0,1,.368-2.04,5.873,5.873,0,0,1,1.08-1.824A5.246,5.246,0,0,1-31.7-10.936a5.328,5.328,0,0,1,2.32-.488,4.93,4.93,0,0,1,2.656.7,4.406,4.406,0,0,1,1.664,1.784L-26.464-8a3.027,3.027,0,0,0-.808-1.088,2.893,2.893,0,0,0-1.056-.56,4.09,4.09,0,0,0-1.112-.16,3.272,3.272,0,0,0-1.568.36,3.48,3.48,0,0,0-1.128.952,4.251,4.251,0,0,0-.688,1.328A4.873,4.873,0,0,0-33.056-5.7a4.642,4.642,0,0,0,.272,1.576,4.373,4.373,0,0,0,.76,1.344,3.59,3.59,0,0,0,1.16.92,3.245,3.245,0,0,0,1.472.336,3.679,3.679,0,0,0,1.136-.192,3.4,3.4,0,0,0,1.1-.6,2.754,2.754,0,0,0,.792-1.08l1.488.848a3.565,3.565,0,0,1-1.1,1.44,5.341,5.341,0,0,1-1.664.9,5.764,5.764,0,0,1-1.816.3,4.769,4.769,0,0,1-2.192-.5A5.534,5.534,0,0,1-33.36-1.752,6.366,6.366,0,0,1-34.48-3.64,5.9,5.9,0,0,1-34.88-5.76Zm20-4.016h-3.776V0h-1.808V-9.776h-3.792V-11.36h9.376ZM-9.888,0V-11.36H-8.1v9.776H-2V0ZM2.736-11.36h1.7L8.848,0H6.96L5.76-3.088H1.376L.192,0h-1.9ZM5.408-4.416,3.584-9.392,1.7-4.416Zm6.64-3.616V0H10.256V-11.36h1.472L18.16-3.152v-8.192h1.808V0H18.4ZM27.168.08a4.819,4.819,0,0,1-2.1-.464,5.33,5.33,0,0,1-1.7-1.28A6.121,6.121,0,0,1,22.232-3.52a5.991,5.991,0,0,1-.408-2.208,5.867,5.867,0,0,1,.408-2.192,5.968,5.968,0,0,1,1.136-1.824,5.211,5.211,0,0,1,1.712-1.248,5.132,5.132,0,0,1,2.152-.448,5.137,5.137,0,0,1,2.728.68,4.375,4.375,0,0,1,1.672,1.8l-1.376.992A3.083,3.083,0,0,0,28.984-9.36a3.606,3.606,0,0,0-1.8-.464,3.147,3.147,0,0,0-1.456.336,3.473,3.473,0,0,0-1.128.92,4.088,4.088,0,0,0-.712,1.328,5.05,5.05,0,0,0-.24,1.56,4.715,4.715,0,0,0,.272,1.616,4.11,4.11,0,0,0,.768,1.32,3.579,3.579,0,0,0,1.168.888,3.343,3.343,0,0,0,1.456.32,3.557,3.557,0,0,0,1.768-.472,5.372,5.372,0,0,0,1.576-1.416V-1.6A4.53,4.53,0,0,1,27.168.08Zm3.312-4.5H28.1V-5.744h3.888V0h-1.5ZM38.768.08a5.136,5.136,0,0,1-2.3-.464,3.967,3.967,0,0,1-1.5-1.264,5.482,5.482,0,0,1-.832-1.824A8.49,8.49,0,0,1,33.872-5.6v-5.76h1.792V-5.6a7.025,7.025,0,0,0,.16,1.512,4.215,4.215,0,0,0,.512,1.3,2.563,2.563,0,0,0,.952.912,2.992,2.992,0,0,0,1.48.336,2.971,2.971,0,0,0,1.5-.344,2.543,2.543,0,0,0,.944-.928,4.454,4.454,0,0,0,.5-1.3,6.839,6.839,0,0,0,.16-1.488v-5.76H43.68V-5.6a8.371,8.371,0,0,1-.28,2.2,5.264,5.264,0,0,1-.864,1.808A4.072,4.072,0,0,1,41.024-.368,5.156,5.156,0,0,1,38.768.08ZM48.88-11.36h1.7L54.992,0H53.1L51.9-3.088H47.52L46.336,0h-1.9Zm2.672,6.944L49.728-9.392,47.84-4.416ZM60.608.08a4.819,4.819,0,0,1-2.1-.464,5.33,5.33,0,0,1-1.7-1.28A6.121,6.121,0,0,1,55.672-3.52a5.991,5.991,0,0,1-.408-2.208,5.867,5.867,0,0,1,.408-2.192,5.968,5.968,0,0,1,1.136-1.824,5.211,5.211,0,0,1,1.712-1.248,5.132,5.132,0,0,1,2.152-.448,5.137,5.137,0,0,1,2.728.68,4.375,4.375,0,0,1,1.672,1.8L63.7-7.968A3.083,3.083,0,0,0,62.424-9.36a3.606,3.606,0,0,0-1.8-.464,3.147,3.147,0,0,0-1.456.336,3.473,3.473,0,0,0-1.128.92,4.088,4.088,0,0,0-.712,1.328,5.05,5.05,0,0,0-.24,1.56,4.716,4.716,0,0,0,.272,1.616,4.11,4.11,0,0,0,.768,1.32,3.579,3.579,0,0,0,1.168.888,3.343,3.343,0,0,0,1.456.32,3.557,3.557,0,0,0,1.768-.472A5.372,5.372,0,0,0,64.1-3.424V-1.6A4.53,4.53,0,0,1,60.608.08Zm3.312-4.5H61.536V-5.744h3.888V0h-1.5ZM75.264-1.584V0H67.472V-11.36H75.12v1.584H69.264v3.232h5.072v1.488H69.264v3.472Z" transform="translate(203 86)" fill="#232323"/>
  </g>
</svg>
