<svg xmlns="http://www.w3.org/2000/svg" width="242" height="46" viewBox="0 0 242 46">
  <g id="detect-another-language" transform="translate(-87 -57)">
    <rect id="Rectangle_80" data-name="Rectangle 80" width="242" height="46" rx="23" transform="translate(87 57)" fill="#f5f4ee"/>
    <path id="Path_124" data-name="Path 124" d="M-107.5,0V-10.65h3.78a5.394,5.394,0,0,1,2.88.712,4.493,4.493,0,0,1,1.732,1.92,6.126,6.126,0,0,1,.577,2.677,5.927,5.927,0,0,1-.637,2.82,4.531,4.531,0,0,1-1.808,1.86,5.5,5.5,0,0,1-2.745.66Zm7.26-5.34a4.555,4.555,0,0,0-.412-1.987,3.179,3.179,0,0,0-1.185-1.35,3.458,3.458,0,0,0-1.882-.488h-2.1v7.68h2.1a3.369,3.369,0,0,0,1.9-.51,3.27,3.27,0,0,0,1.177-1.38A4.6,4.6,0,0,0-100.238-5.34Zm10.785,3.855V0h-7.305V-10.65h7.17v1.485h-5.49v3.03h4.755V-4.74h-4.755v3.255Zm9.555-7.68h-3.54V0h-1.695V-9.165h-3.555V-10.65h8.79Zm8.73,7.68V0h-7.305V-10.65h7.17v1.485h-5.49v3.03h4.755V-4.74h-4.755v3.255ZM-70.3-5.4a5.5,5.5,0,0,1,.345-1.912,5.506,5.506,0,0,1,1.012-1.71,4.919,4.919,0,0,1,1.628-1.23,5,5,0,0,1,2.175-.458,4.622,4.622,0,0,1,2.49.653,4.13,4.13,0,0,1,1.56,1.672l-1.32.885a2.838,2.838,0,0,0-.757-1.02,2.713,2.713,0,0,0-.99-.525,3.835,3.835,0,0,0-1.043-.15,3.067,3.067,0,0,0-1.47.337,3.263,3.263,0,0,0-1.058.892A3.986,3.986,0,0,0-68.37-6.72a4.568,4.568,0,0,0-.217,1.38,4.352,4.352,0,0,0,.255,1.478A4.1,4.1,0,0,0-67.62-2.6a3.365,3.365,0,0,0,1.088.862,3.042,3.042,0,0,0,1.38.315,3.449,3.449,0,0,0,1.065-.18,3.185,3.185,0,0,0,1.028-.562,2.582,2.582,0,0,0,.742-1.013l1.4.8a3.342,3.342,0,0,1-1.028,1.35,5.007,5.007,0,0,1-1.56.84,5.4,5.4,0,0,1-1.7.285,4.471,4.471,0,0,1-2.055-.472,5.188,5.188,0,0,1-1.605-1.26,5.968,5.968,0,0,1-1.05-1.77A5.534,5.534,0,0,1-70.3-5.4Zm18.75-3.765h-3.54V0h-1.7V-9.165h-3.555V-10.65h8.79Zm7.29-1.485h1.59L-38.528,0H-40.3l-1.125-2.895h-4.11L-46.643,0h-1.785Zm2.5,6.51-1.71-4.665-1.77,4.665Zm6.225-3.39V0h-1.68V-10.65h1.38l6.03,7.695v-7.68H-28.1V0h-1.47Zm14.25,7.6a4.725,4.725,0,0,1-2.085-.45A5,5,0,0,1-24.968-1.6a5.7,5.7,0,0,1-1.042-1.74,5.553,5.553,0,0,1-.368-1.987,5.385,5.385,0,0,1,.39-2.033,5.709,5.709,0,0,1,1.08-1.725,5.156,5.156,0,0,1,1.627-1.2,4.7,4.7,0,0,1,2.033-.442,4.61,4.61,0,0,1,2.077.465,5.03,5.03,0,0,1,1.6,1.245,5.9,5.9,0,0,1,1.035,1.74,5.454,5.454,0,0,1,.368,1.965,5.478,5.478,0,0,1-.383,2.032,5.592,5.592,0,0,1-1.073,1.725A5.059,5.059,0,0,1-19.245-.36,4.769,4.769,0,0,1-21.278.075Zm-3.39-5.4a4.484,4.484,0,0,0,.24,1.455,4.049,4.049,0,0,0,.682,1.252,3.208,3.208,0,0,0,1.073.863,3.109,3.109,0,0,0,1.41.315,3.057,3.057,0,0,0,1.44-.33,3.144,3.144,0,0,0,1.058-.892,4.192,4.192,0,0,0,.653-1.26,4.544,4.544,0,0,0,.225-1.4,4.547,4.547,0,0,0-.232-1.448A3.867,3.867,0,0,0-18.8-8.017a3.31,3.31,0,0,0-1.073-.863,3.029,3.029,0,0,0-1.388-.315,3.057,3.057,0,0,0-1.44.33,3.258,3.258,0,0,0-1.065.885,4.149,4.149,0,0,0-.667,1.245A4.388,4.388,0,0,0-24.668-5.325Zm17.76-3.84h-3.54V0h-1.7V-9.165H-15.7V-10.65h8.79ZM3.262-10.65V0H1.567V-4.695H-3.8V0h-1.68V-10.65H-3.8v4.455h5.37V-10.65Zm9.705,9.165V0h-7.3V-10.65h7.17v1.485H7.343v3.03H12.1V-4.74H7.343v3.255ZM14.707,0V-10.65h4.635a2.91,2.91,0,0,1,1.32.3,3.461,3.461,0,0,1,1.043.8,3.759,3.759,0,0,1,.69,1.11,3.347,3.347,0,0,1,.247,1.26,3.639,3.639,0,0,1-.255,1.35,3.173,3.173,0,0,1-.728,1.11,2.825,2.825,0,0,1-1.1.675L23.063,0h-1.89l-2.31-3.7H16.388V0Zm1.68-5.19h2.94a1.339,1.339,0,0,0,.825-.27,1.855,1.855,0,0,0,.57-.727,2.362,2.362,0,0,0,.21-1,2.058,2.058,0,0,0-.24-1,2.054,2.054,0,0,0-.622-.712,1.414,1.414,0,0,0-.833-.27h-2.85ZM28.327,0V-10.65h1.68v9.165h5.715V0ZM40.163-10.65h1.59L45.893,0h-1.77L43-2.895h-4.11L37.778,0H35.993Zm2.5,6.51-1.71-4.665L39.188-4.14Zm6.225-3.39V0h-1.68V-10.65h1.38l6.03,7.695v-7.68h1.695V0h-1.47ZM63.067.075A4.518,4.518,0,0,1,61.1-.36a5,5,0,0,1-1.6-1.2A5.739,5.739,0,0,1,58.44-3.3a5.617,5.617,0,0,1-.382-2.07,5.5,5.5,0,0,1,.382-2.055A5.6,5.6,0,0,1,59.5-9.135a4.885,4.885,0,0,1,1.6-1.17,4.811,4.811,0,0,1,2.018-.42,4.816,4.816,0,0,1,2.558.637A4.1,4.1,0,0,1,67.252-8.4l-1.29.93a2.89,2.89,0,0,0-1.192-1.3,3.381,3.381,0,0,0-1.688-.435,2.95,2.95,0,0,0-1.365.315,3.256,3.256,0,0,0-1.057.862,3.833,3.833,0,0,0-.668,1.245,4.734,4.734,0,0,0-.225,1.463,4.421,4.421,0,0,0,.255,1.515,3.853,3.853,0,0,0,.72,1.238,3.356,3.356,0,0,0,1.1.832,3.134,3.134,0,0,0,1.365.3,3.335,3.335,0,0,0,1.657-.442A5.036,5.036,0,0,0,66.337-3.21V-1.5A4.247,4.247,0,0,1,63.067.075Zm3.1-4.215H63.937V-5.385h3.645V0h-1.41ZM73.942.075A4.815,4.815,0,0,1,71.79-.36a3.719,3.719,0,0,1-1.41-1.185,5.14,5.14,0,0,1-.78-1.71,7.96,7.96,0,0,1-.247-2v-5.4h1.68v5.4a6.586,6.586,0,0,0,.15,1.418,3.952,3.952,0,0,0,.48,1.222,2.4,2.4,0,0,0,.893.855,2.805,2.805,0,0,0,1.387.315,2.785,2.785,0,0,0,1.4-.322,2.384,2.384,0,0,0,.885-.87A4.176,4.176,0,0,0,76.7-3.855a6.412,6.412,0,0,0,.15-1.395v-5.4h1.695v5.4a7.848,7.848,0,0,1-.263,2.063,4.935,4.935,0,0,1-.81,1.695A3.818,3.818,0,0,1,76.057-.345,4.833,4.833,0,0,1,73.942.075Zm9.48-10.725h1.59L89.152,0h-1.77L86.257-2.895h-4.11L81.037,0H79.253Zm2.5,6.51-1.71-4.665L82.448-4.14ZM94.418.075A4.518,4.518,0,0,1,92.452-.36a5,5,0,0,1-1.6-1.2A5.739,5.739,0,0,1,89.79-3.3a5.617,5.617,0,0,1-.382-2.07,5.5,5.5,0,0,1,.382-2.055,5.6,5.6,0,0,1,1.065-1.71,4.885,4.885,0,0,1,1.6-1.17,4.811,4.811,0,0,1,2.018-.42,4.816,4.816,0,0,1,2.558.637A4.1,4.1,0,0,1,98.6-8.4l-1.29.93a2.89,2.89,0,0,0-1.192-1.3,3.381,3.381,0,0,0-1.687-.435,2.95,2.95,0,0,0-1.365.315,3.256,3.256,0,0,0-1.057.862,3.833,3.833,0,0,0-.668,1.245,4.734,4.734,0,0,0-.225,1.463,4.421,4.421,0,0,0,.255,1.515,3.853,3.853,0,0,0,.72,1.238,3.356,3.356,0,0,0,1.1.832,3.134,3.134,0,0,0,1.365.3,3.335,3.335,0,0,0,1.658-.442A5.036,5.036,0,0,0,97.688-3.21V-1.5A4.247,4.247,0,0,1,94.418.075Zm3.1-4.215H95.287V-5.385h3.645V0h-1.41Zm10.635,2.655V0h-7.305V-10.65h7.17v1.485h-5.49v3.03h4.755V-4.74h-4.755v3.255Z" transform="translate(208 85)" fill="#232323"/>
  </g>
</svg>
